<svg width="128" height="34" viewBox="0 0 128 34" fill="none" xmlns="http://www.w3.org/2000/svg">
<path fill-rule="evenodd" clip-rule="evenodd" d="M105.23 22.2598C107.72 22.2598 109.69 19.5698 109.69 16.2598V8.25977H111.69V16.2598C111.69 20.6598 108.81 24.2098 105.27 24.2098C101.73 24.2098 98.85 20.6598 98.85 16.2598V8.25977H100.85V16.2598C100.77 19.6198 102.74 22.3098 105.22 22.3098L105.23 22.2598ZM57.06 24.3298H55.06V22.8998C53.7702 23.8026 52.2344 24.2878 50.66 24.2898C46.9602 24.3145 43.7261 21.799 42.8396 18.207C41.953 14.6149 43.6452 10.8835 46.9316 9.18393C50.218 7.48437 54.2411 8.26011 56.66 11.0598L55.19 12.3698C53.3509 10.3136 50.3468 9.77643 47.9092 11.0678C45.4715 12.3591 44.2284 15.1462 44.8965 17.8227C45.5645 20.4992 47.9714 22.3753 50.73 22.3698C52.4117 22.3732 54.0112 21.6429 55.11 20.3698H49.71V18.3698H57.08L57.06 24.3298ZM23.23 8.38977H21.23V24.3098H29.23V22.3098H23.23V8.38977ZM35.46 20.3898C38.7737 20.3898 41.46 17.7035 41.46 14.3898C41.46 11.0761 38.7737 8.38977 35.46 8.38977C33.8687 8.38977 32.3426 9.02191 31.2174 10.1471C30.0922 11.2723 29.46 12.7985 29.46 14.3898C29.46 17.7035 32.1463 20.3898 35.46 20.3898ZM35.46 18.3898C37.6691 18.3898 39.46 16.5989 39.46 14.3898C39.46 12.1806 37.6691 10.3898 35.46 10.3898C33.2509 10.3898 31.46 12.1806 31.46 14.3898C31.471 16.5911 33.2587 18.3698 35.46 18.3698V18.3898ZM39.46 24.3298V22.3298H31.46V24.3298H39.46ZM70.42 14.4298C70.42 11.1161 67.7337 8.42977 64.42 8.42977L64.44 8.38977C62.8383 8.38439 61.3009 9.01966 60.1702 10.1541C59.0395 11.2886 58.4093 12.8281 58.42 14.4298C58.42 17.7435 61.1063 20.4298 64.42 20.4298C67.7337 20.4298 70.42 17.7435 70.42 14.4298ZM64.42 18.4298C66.6292 18.4298 68.42 16.6389 68.42 14.4298C68.42 12.2206 66.6292 10.4298 64.42 10.4298C62.2109 10.4298 60.42 12.2206 60.42 14.4298C60.4529 16.6232 62.2463 18.381 64.44 18.3698L64.42 18.4298ZM68.42 24.3698V22.3698H60.42V24.3698H68.42ZM72.55 8.38977H74.55V24.2898H72.55V8.38977ZM79.32 8.38977H77.32V24.3198H79.32V20.3198H79.63C81.9154 20.5677 84.1415 19.4881 85.3619 17.54C86.5822 15.5918 86.5822 13.1177 85.3619 11.1696C84.1415 9.22145 81.9154 8.14183 79.63 8.38977C79.527 8.37884 79.4231 8.37884 79.32 8.38977ZM79.32 10.3898V10.4364L79.31 10.4398L79.32 10.3898ZM79.32 10.4364C79.4206 10.4031 79.5246 10.3807 79.63 10.3698C81.1724 10.1644 82.6938 10.872 83.5305 12.1839C84.3672 13.4958 84.3672 15.1738 83.5305 16.4856C82.6938 17.7975 81.1724 18.5051 79.63 18.2998H79.32V10.4364ZM93.6969 9.56591L93.73 9.53977L93.72 9.58977L93.6969 9.56591ZM90.91 8.43977C91.9561 8.40888 92.9667 8.81767 93.6969 9.56591L92.25 10.7098C91.7287 10.1651 90.939 9.97174 90.2251 10.214C89.5111 10.4563 89.0022 11.0903 88.92 11.8398V11.9998C88.92 12.8798 89.53 13.4698 90.72 13.5498C95.3 13.8298 97.4 15.9798 97.4 18.8198V18.9998C97.1585 21.2952 95.6007 23.2391 93.413 23.9748C91.2253 24.7105 88.8094 24.1029 87.23 22.4198L88.76 21.2398C89.4808 22.0122 90.5046 22.4291 91.56 22.3798C93.5612 22.4853 95.2899 20.9947 95.48 18.9998V18.8598C95.48 16.1898 92.86 15.6998 90.59 15.4798C88.49 15.2798 86.98 13.9698 86.98 12.0798V11.9998C87.1338 9.9563 88.8613 8.39141 90.91 8.43977ZM125.04 24.2598H127.04L127.02 8.38977L120.42 17.0798L113.82 8.38977V24.2898H115.82V14.3598L120.43 20.3598L125.04 14.3598V24.2598Z" fill="white"/>
<path fill-rule="evenodd" clip-rule="evenodd" d="M11.63 6.00006C11.63 2.99563 9.19443 0.560059 6.19 0.560059C3.18557 0.560059 0.75 2.99563 0.75 6.00006V22.4501L5.23 25.6601V33.4801H7.15V25.6601L11.63 22.4501V6.00006ZM9.71 15.2001L7.15 17.7601V15.3601L9.71 12.8001V15.2001ZM5.27 15.3601L2.71 12.8001V15.2001L5.27 17.7601V15.3601ZM9.71 10.0801L6.19 13.6001L2.67 10.0001V7.60006L6.19 11.1201L9.71 7.60006V10.0801ZM9.59 5.09006C9.17201 3.55483 7.7811 2.4871 6.19 2.48006V2.44006C4.58749 2.45197 3.19286 3.53896 2.79 5.09006L6.19 8.48006L9.59 5.09006ZM2.67 21.4801V17.8801L5.23 20.4401V23.3001L2.67 21.4801ZM7.15 20.4401V23.3101L9.71 21.4701V17.8801L7.15 20.4401Z" fill="#FFAC12"/>
</svg>
